<?xml version="1.0" encoding="UTF-8" standalone="no"?>
<!-- Created with Inkscape (http://www.inkscape.org/) -->

<svg
   width="64"
   height="64"
   viewBox="0 0 16.933333 16.933334"
   version="1.1"
   id="svg5"
   xmlns="http://www.w3.org/2000/svg"
   xmlns:svg="http://www.w3.org/2000/svg">
  <defs
     id="defs2" />
  <g
     id="layer1">
    <rect
       style="fill:#ffffff;fill-opacity:1;fill-rule:evenodd;stroke-width:4.99999"
       id="rect932"
       width="16.933332"
       height="16.933332"
       x="2.220446e-16"
       y="-2.220446e-16" />
    <path
       id="path848"
       style="fill:#000000;fill-opacity:1;fill-rule:evenodd;stroke-width:3.99999"
       d="M 1.6933334,1.6933333 A 2.7093333,2.7093333 0 0 0 4.4028323,4.4028319 H 7.1119168 V 7.1119171 H 4.4028323 A 2.7093333,2.7093333 0 0 0 7.1119168,9.8214157 V 12.530501 A 2.7093333,2.7093333 0 0 0 9.8214166,15.24 h 2.7090844 a 2.7093333,2.7093333 0 0 0 2.7095,-2.709499 V 4.4028319 a 2.7093333,2.7093333 0 0 0 -2.7095,-2.7094986 H 4.4028323 Z m 9.4828316,2.7094986 a 1.3546666,1.3546666 0 0 1 1.354336,1.354336 1.3546666,1.3546666 0 0 1 -1.354336,1.3547492 1.3546666,1.3546666 0 0 1 -1.3547484,-1.3547492 1.3546666,1.3546666 0 0 1 1.3547484,-1.354336 z m 0,5.4185838 a 1.3546667,1.3546667 0 0 1 1.354336,1.3547493 1.3546667,1.3546667 0 0 1 -1.354336,1.354336 1.3546667,1.3546667 0 0 1 -1.3547484,-1.354336 1.3546667,1.3546667 0 0 1 1.3547484,-1.3547493 z" />
  </g>
</svg>
